<?xml version="1.0" standalone="no"?>
<!DOCTYPE svg PUBLIC "-//W3C//DTD SVG 20010904//EN"
 "http://www.w3.org/TR/2001/REC-SVG-20010904/DTD/svg10.dtd">
<svg version="1.0" xmlns="http://www.w3.org/2000/svg"
 width="864.000000pt" height="315.000000pt" viewBox="0 0 864.000000 315.000000"
 preserveAspectRatio="xMidYMid meet">

<g transform="translate(0.000000,315.000000) scale(0.100000,-0.100000)"
fill="#FFFFFF" stroke="none">
<path d="M4155 2724 c-305 -41 -527 -111 -1185 -374 -168 -67 -330 -129 -360
-138 -45 -13 -139 -17 -540 -22 -562 -8 -491 3 -914 -136 -143 -47 -371 -122
-506 -166 -135 -44 -249 -85 -255 -90 -7 -7 -3 -8 10 -5 11 3 191 49 400 101
209 53 439 112 510 131 248 67 263 68 770 69 392 1 470 4 530 18 39 9 214 73
390 142 364 142 509 192 680 235 388 98 713 114 1065 55 105 -18 447 -103 755
-189 110 -31 317 -88 460 -127 l260 -71 225 -8 c250 -8 194 3 655 -127 558
-158 657 -175 852 -148 67 9 161 24 209 33 l89 18 -70 6 c-38 4 -124 7 -190 8
-66 1 -150 6 -187 11 -37 5 -210 55 -385 111 -675 214 -983 300 -1488 419
-718 170 -992 226 -1207 249 -132 15 -451 12 -573 -5z"/>
<path d="M3102 2193 c-18 -3 -34 -27 -68 -96 -24 -50 -44 -96 -44 -103 0 -9
19 -5 61 12 79 32 174 51 334 64 71 6 131 13 132 14 2 2 0 21 -5 42 -8 38 -9
39 -67 51 -66 13 -306 24 -343 16z"/>
<path d="M5370 2133 c-136 -8 -499 -48 -755 -83 -388 -54 -436 -58 -810 -76
-515 -26 -908 -28 -1294 -9 -442 21 -777 24 -856 7 -83 -18 -424 -116 -420
-120 5 -6 146 16 320 50 157 30 164 30 375 25 118 -3 348 -18 510 -34 271 -25
333 -27 760 -27 789 -1 993 12 1770 108 107 14 245 30 305 38 182 21 485 16
645 -11 74 -12 143 -25 153 -27 9 -3 17 -1 17 4 0 14 -167 88 -262 116 -133
39 -267 50 -458 39z"/>
<path d="M5305 1703 c-36 -94 -329 -733 -451 -982 -68 -140 -124 -256 -124
-257 0 -2 49 -4 110 -4 l109 0 63 43 c116 80 225 113 423 126 169 11 167 12
214 -86 l40 -83 120 0 120 0 -24 53 c-13 28 -89 194 -169 367 -81 173 -204
440 -274 592 -70 153 -130 278 -133 278 -4 0 -14 -21 -24 -47z m118 -663 c49
-109 86 -204 82 -210 -3 -5 -16 -10 -28 -10 -69 -1 -250 -52 -375 -107 -16 -7
2 39 108 272 45 99 89 197 98 218 9 20 19 37 22 37 3 0 45 -90 93 -200z"/>
<path d="M3962 1610 c-110 -29 -187 -74 -272 -160 -129 -130 -176 -256 -167
-445 8 -173 58 -285 180 -402 113 -108 240 -157 407 -157 87 1 118 5 184 28
93 32 173 82 220 139 l34 41 -80 87 -81 88 -57 -58 c-67 -69 -122 -91 -221
-91 -131 0 -241 67 -296 178 -26 53 -28 66 -28 177 0 103 3 128 24 178 51 125
181 193 323 169 82 -14 128 -36 202 -96 l54 -45 44 37 c23 20 63 54 87 75 l43
39 -73 72 c-147 144 -336 196 -527 146z"/>
<path d="M7740 1609 c-122 -21 -211 -83 -260 -181 -26 -53 -30 -72 -30 -142 0
-173 76 -251 339 -347 60 -22 108 -47 134 -70 38 -33 41 -39 40 -87 -1 -57
-18 -92 -60 -119 -21 -14 -48 -18 -118 -18 -77 0 -99 4 -150 28 -32 15 -74 39
-93 53 -18 14 -34 24 -36 23 -17 -25 -76 -191 -71 -199 12 -19 128 -68 198
-85 88 -21 231 -19 305 3 154 49 244 166 245 321 0 93 -24 156 -86 219 -55 57
-101 83 -218 125 -179 65 -212 90 -212 161 0 25 7 56 17 71 40 60 158 73 273
29 37 -14 75 -28 84 -30 12 -4 25 15 52 75 20 44 37 85 37 90 0 12 -89 55
-145 70 -59 16 -182 21 -245 10z"/>
<path d="M377 1038 l5 -573 409 -3 409 -2 0 122 0 123 -252 -3 c-139 -1 -263
0 -275 3 -22 5 -23 10 -23 104 0 83 3 100 17 105 9 4 125 6 257 6 l241 -1 0
123 0 123 -195 2 c-107 1 -223 3 -257 3 l-63 0 0 95 0 95 270 0 270 0 0 125 0
125 -409 0 -409 0 5 -572z"/>
<path d="M1610 1035 l0 -575 135 0 135 0 0 160 0 160 128 0 c209 0 327 36 426
130 34 32 64 73 82 113 27 57 29 71 29 182 0 109 -2 125 -27 177 -52 111 -162
193 -292 217 -34 6 -179 11 -338 11 l-278 0 0 -575z m597 302 c49 -26 66 -67
61 -148 -3 -55 -8 -73 -28 -95 -46 -50 -93 -58 -312 -55 l-48 1 0 161 0 161
148 -4 c116 -3 154 -7 179 -21z"/>
<path d="M2902 1038 l3 -573 133 -3 132 -3 0 576 0 575 -136 0 -135 0 3 -572z"/>
<path d="M6231 1298 c1 -172 4 -431 7 -575 l4 -263 109 0 109 0 0 475 0 475
118 0 c203 -1 265 -46 264 -190 0 -73 -13 -114 -45 -148 -41 -44 -77 -56 -193
-61 l-112 -6 190 -272 191 -273 124 0 125 0 -18 28 c-9 15 -73 110 -141 212
-107 160 -121 186 -107 195 163 98 210 182 202 359 -3 73 -10 101 -30 141 -52
100 -141 168 -265 200 -43 11 -117 15 -295 15 l-238 0 1 -312z"/>
</g>
</svg>
